<mxfile host="app.diagrams.net" modified="2024-07-11T09:14:46.990Z" agent="Mozilla/5.0 (Macintosh; Intel Mac OS X 10_15_7) AppleWebKit/537.36 (KHTML, like Gecko) Chrome/126.0.0.0 Safari/537.36" etag="g5-uuN97VxMYgFViSIM7" version="24.6.4" type="github">
  <diagram name="Page-1" id="mn4VGJOanwBJVE0ghlC3">
    <mxGraphModel dx="999" dy="1092" grid="1" gridSize="10" guides="1" tooltips="1" connect="1" arrows="1" fold="1" page="0" pageScale="1" pageWidth="827" pageHeight="1169" math="0" shadow="0">
      <root>
        <mxCell id="0" />
        <mxCell id="1" parent="0" />
        <mxCell id="kCYPVFitgcqMiLwyZe9G-91" value="AWS Cloud" style="points=[[0,0],[0.25,0],[0.5,0],[0.75,0],[1,0],[1,0.25],[1,0.5],[1,0.75],[1,1],[0.75,1],[0.5,1],[0.25,1],[0,1],[0,0.75],[0,0.5],[0,0.25]];outlineConnect=0;gradientColor=none;html=1;whiteSpace=wrap;fontSize=24;fontStyle=0;container=1;pointerEvents=0;collapsible=0;recursiveResize=0;shape=mxgraph.aws4.group;grIcon=mxgraph.aws4.group_aws_cloud_alt;strokeColor=#232F3E;fillColor=none;verticalAlign=top;align=left;spacingLeft=30;fontColor=#232F3E;dashed=0;" vertex="1" parent="1">
          <mxGeometry x="1995" y="-300" width="210" height="210" as="geometry" />
        </mxCell>
        <mxCell id="kCYPVFitgcqMiLwyZe9G-93" value="SSG API Gateway" style="sketch=0;points=[[0,0,0],[0.25,0,0],[0.5,0,0],[0.75,0,0],[1,0,0],[0,1,0],[0.25,1,0],[0.5,1,0],[0.75,1,0],[1,1,0],[0,0.25,0],[0,0.5,0],[0,0.75,0],[1,0.25,0],[1,0.5,0],[1,0.75,0]];outlineConnect=0;fontColor=#232F3E;fillColor=#8C4FFF;strokeColor=#ffffff;dashed=0;verticalLabelPosition=bottom;verticalAlign=top;align=center;html=1;fontSize=24;fontStyle=0;aspect=fixed;shape=mxgraph.aws4.resourceIcon;resIcon=mxgraph.aws4.api_gateway;" vertex="1" parent="kCYPVFitgcqMiLwyZe9G-91">
          <mxGeometry x="66" y="66" width="78" height="78" as="geometry" />
        </mxCell>
        <mxCell id="kCYPVFitgcqMiLwyZe9G-126" style="edgeStyle=orthogonalEdgeStyle;rounded=0;orthogonalLoop=1;jettySize=auto;html=1;entryX=0.5;entryY=1;entryDx=0;entryDy=0;fontSize=24;" edge="1" parent="1" source="kCYPVFitgcqMiLwyZe9G-124" target="kCYPVFitgcqMiLwyZe9G-91">
          <mxGeometry relative="1" as="geometry" />
        </mxCell>
        <mxCell id="kCYPVFitgcqMiLwyZe9G-80" value="AWS Cloud" style="points=[[0,0],[0.25,0],[0.5,0],[0.75,0],[1,0],[1,0.25],[1,0.5],[1,0.75],[1,1],[0.75,1],[0.5,1],[0.25,1],[0,1],[0,0.75],[0,0.5],[0,0.25]];outlineConnect=0;gradientColor=none;html=1;whiteSpace=wrap;fontSize=24;fontStyle=0;container=1;pointerEvents=0;collapsible=0;recursiveResize=0;shape=mxgraph.aws4.group;grIcon=mxgraph.aws4.group_aws_cloud_alt;strokeColor=#232F3E;fillColor=none;verticalAlign=top;align=left;spacingLeft=30;fontColor=#232F3E;dashed=0;" vertex="1" parent="1">
          <mxGeometry x="20" y="20" width="4200" height="4380" as="geometry" />
        </mxCell>
        <mxCell id="kCYPVFitgcqMiLwyZe9G-81" value="ap-southeast-1" style="points=[[0,0],[0.25,0],[0.5,0],[0.75,0],[1,0],[1,0.25],[1,0.5],[1,0.75],[1,1],[0.75,1],[0.5,1],[0.25,1],[0,1],[0,0.75],[0,0.5],[0,0.25]];outlineConnect=0;gradientColor=none;html=1;whiteSpace=wrap;fontSize=24;fontStyle=0;container=1;pointerEvents=0;collapsible=0;recursiveResize=0;shape=mxgraph.aws4.group;grIcon=mxgraph.aws4.group_region;strokeColor=#00A4A6;fillColor=none;verticalAlign=top;align=left;spacingLeft=30;fontColor=#147EBA;dashed=1;" vertex="1" parent="kCYPVFitgcqMiLwyZe9G-80">
          <mxGeometry x="30" y="40" width="4120" height="4010" as="geometry" />
        </mxCell>
        <mxCell id="kCYPVFitgcqMiLwyZe9G-82" value="VPC" style="points=[[0,0],[0.25,0],[0.5,0],[0.75,0],[1,0],[1,0.25],[1,0.5],[1,0.75],[1,1],[0.75,1],[0.5,1],[0.25,1],[0,1],[0,0.75],[0,0.5],[0,0.25]];outlineConnect=0;gradientColor=none;html=1;whiteSpace=wrap;fontSize=24;fontStyle=0;container=1;pointerEvents=0;collapsible=0;recursiveResize=0;shape=mxgraph.aws4.group;grIcon=mxgraph.aws4.group_vpc2;strokeColor=#8C4FFF;fillColor=none;verticalAlign=top;align=left;spacingLeft=30;fontColor=#AAB7B8;dashed=0;" vertex="1" parent="kCYPVFitgcqMiLwyZe9G-81">
          <mxGeometry x="30" y="40" width="4040" height="2840" as="geometry" />
        </mxCell>
        <mxCell id="kCYPVFitgcqMiLwyZe9G-89" value="ap-southeast-1a" style="fillColor=none;strokeColor=#147EBA;dashed=1;verticalAlign=top;fontStyle=0;fontColor=#147EBA;whiteSpace=wrap;html=1;fontSize=24;" vertex="1" parent="kCYPVFitgcqMiLwyZe9G-82">
          <mxGeometry x="40" y="330" width="1240" height="2430" as="geometry" />
        </mxCell>
        <mxCell id="kCYPVFitgcqMiLwyZe9G-95" value="ap-southeast-1b" style="fillColor=none;strokeColor=#147EBA;dashed=1;verticalAlign=top;fontStyle=0;fontColor=#147EBA;whiteSpace=wrap;html=1;fontSize=24;" vertex="1" parent="kCYPVFitgcqMiLwyZe9G-82">
          <mxGeometry x="1400" y="330" width="1240" height="2430" as="geometry" />
        </mxCell>
        <mxCell id="kCYPVFitgcqMiLwyZe9G-96" value="ap-southeast-1c" style="fillColor=none;strokeColor=#147EBA;dashed=1;verticalAlign=top;fontStyle=0;fontColor=#147EBA;whiteSpace=wrap;html=1;fontSize=24;" vertex="1" parent="kCYPVFitgcqMiLwyZe9G-82">
          <mxGeometry x="2760" y="330" width="1240" height="2430" as="geometry" />
        </mxCell>
        <mxCell id="kCYPVFitgcqMiLwyZe9G-97" value="Public subnet" style="points=[[0,0],[0.25,0],[0.5,0],[0.75,0],[1,0],[1,0.25],[1,0.5],[1,0.75],[1,1],[0.75,1],[0.5,1],[0.25,1],[0,1],[0,0.75],[0,0.5],[0,0.25]];outlineConnect=0;gradientColor=none;html=1;whiteSpace=wrap;fontSize=24;fontStyle=0;container=1;pointerEvents=0;collapsible=0;recursiveResize=0;shape=mxgraph.aws4.group;grIcon=mxgraph.aws4.group_security_group;grStroke=0;strokeColor=#7AA116;fillColor=#F2F6E8;verticalAlign=top;align=left;spacingLeft=30;fontColor=#248814;dashed=0;" vertex="1" parent="kCYPVFitgcqMiLwyZe9G-82">
          <mxGeometry x="95" y="420" width="1130" height="920" as="geometry" />
        </mxCell>
        <mxCell id="kCYPVFitgcqMiLwyZe9G-113" value="" style="endArrow=none;dashed=1;html=1;rounded=0;fontSize=24;" edge="1" parent="kCYPVFitgcqMiLwyZe9G-97" source="kCYPVFitgcqMiLwyZe9G-104">
          <mxGeometry width="50" height="50" relative="1" as="geometry">
            <mxPoint x="885" y="260" as="sourcePoint" />
            <mxPoint x="835" y="460" as="targetPoint" />
          </mxGeometry>
        </mxCell>
        <mxCell id="kCYPVFitgcqMiLwyZe9G-98" value="Public subnet" style="points=[[0,0],[0.25,0],[0.5,0],[0.75,0],[1,0],[1,0.25],[1,0.5],[1,0.75],[1,1],[0.75,1],[0.5,1],[0.25,1],[0,1],[0,0.75],[0,0.5],[0,0.25]];outlineConnect=0;gradientColor=none;html=1;whiteSpace=wrap;fontSize=24;fontStyle=0;container=1;pointerEvents=0;collapsible=0;recursiveResize=0;shape=mxgraph.aws4.group;grIcon=mxgraph.aws4.group_security_group;grStroke=0;strokeColor=#7AA116;fillColor=#F2F6E8;verticalAlign=top;align=left;spacingLeft=30;fontColor=#248814;dashed=0;" vertex="1" parent="kCYPVFitgcqMiLwyZe9G-82">
          <mxGeometry x="1455" y="420" width="1130" height="920" as="geometry" />
        </mxCell>
        <mxCell id="kCYPVFitgcqMiLwyZe9G-114" value="" style="endArrow=none;dashed=1;html=1;dashPattern=1 3;strokeWidth=2;rounded=0;fontSize=24;" edge="1" parent="kCYPVFitgcqMiLwyZe9G-98" source="kCYPVFitgcqMiLwyZe9G-112">
          <mxGeometry width="50" height="50" relative="1" as="geometry">
            <mxPoint x="385" y="230" as="sourcePoint" />
            <mxPoint x="394" y="470" as="targetPoint" />
          </mxGeometry>
        </mxCell>
        <mxCell id="kCYPVFitgcqMiLwyZe9G-99" value="Public subnet" style="points=[[0,0],[0.25,0],[0.5,0],[0.75,0],[1,0],[1,0.25],[1,0.5],[1,0.75],[1,1],[0.75,1],[0.5,1],[0.25,1],[0,1],[0,0.75],[0,0.5],[0,0.25]];outlineConnect=0;gradientColor=none;html=1;whiteSpace=wrap;fontSize=24;fontStyle=0;container=1;pointerEvents=0;collapsible=0;recursiveResize=0;shape=mxgraph.aws4.group;grIcon=mxgraph.aws4.group_security_group;grStroke=0;strokeColor=#7AA116;fillColor=#F2F6E8;verticalAlign=top;align=left;spacingLeft=30;fontColor=#248814;dashed=0;" vertex="1" parent="kCYPVFitgcqMiLwyZe9G-82">
          <mxGeometry x="2815" y="420" width="1130" height="920" as="geometry" />
        </mxCell>
        <mxCell id="kCYPVFitgcqMiLwyZe9G-117" value="" style="endArrow=none;dashed=1;html=1;dashPattern=1 3;strokeWidth=2;rounded=0;fontSize=24;" edge="1" parent="kCYPVFitgcqMiLwyZe9G-99" source="kCYPVFitgcqMiLwyZe9G-106">
          <mxGeometry width="50" height="50" relative="1" as="geometry">
            <mxPoint x="365" y="220" as="sourcePoint" />
            <mxPoint x="374" y="460" as="targetPoint" />
          </mxGeometry>
        </mxCell>
        <mxCell id="kCYPVFitgcqMiLwyZe9G-115" value="Public NAT Gateway" style="sketch=0;outlineConnect=0;fontColor=#232F3E;gradientColor=none;fillColor=#8C4FFF;strokeColor=none;dashed=0;verticalLabelPosition=bottom;verticalAlign=top;align=center;html=1;fontSize=24;fontStyle=0;aspect=fixed;pointerEvents=1;shape=mxgraph.aws4.nat_gateway;" vertex="1" parent="kCYPVFitgcqMiLwyZe9G-99">
          <mxGeometry x="515.5" y="410.5" width="99" height="99" as="geometry" />
        </mxCell>
        <mxCell id="kCYPVFitgcqMiLwyZe9G-102" value="Private subnet" style="points=[[0,0],[0.25,0],[0.5,0],[0.75,0],[1,0],[1,0.25],[1,0.5],[1,0.75],[1,1],[0.75,1],[0.5,1],[0.25,1],[0,1],[0,0.75],[0,0.5],[0,0.25]];outlineConnect=0;gradientColor=none;html=1;whiteSpace=wrap;fontSize=24;fontStyle=0;container=1;pointerEvents=0;collapsible=0;recursiveResize=0;shape=mxgraph.aws4.group;grIcon=mxgraph.aws4.group_security_group;grStroke=0;strokeColor=#00A4A6;fillColor=#E6F6F7;verticalAlign=top;align=left;spacingLeft=30;fontColor=#147EBA;dashed=0;" vertex="1" parent="kCYPVFitgcqMiLwyZe9G-82">
          <mxGeometry x="1457.5" y="1381" width="1125" height="1349" as="geometry" />
        </mxCell>
        <mxCell id="kCYPVFitgcqMiLwyZe9G-119" value="Private Route Table" style="sketch=0;outlineConnect=0;fontColor=#232F3E;gradientColor=none;fillColor=#8C4FFF;strokeColor=none;dashed=0;verticalLabelPosition=bottom;verticalAlign=top;align=center;html=1;fontSize=24;fontStyle=0;aspect=fixed;pointerEvents=1;shape=mxgraph.aws4.route_table;" vertex="1" parent="kCYPVFitgcqMiLwyZe9G-102">
          <mxGeometry x="962.5" y="39" width="98" height="95.49" as="geometry" />
        </mxCell>
        <mxCell id="kCYPVFitgcqMiLwyZe9G-129" value="" style="sketch=0;pointerEvents=1;shadow=0;dashed=0;html=1;strokeColor=none;labelPosition=center;verticalLabelPosition=bottom;verticalAlign=top;outlineConnect=0;align=center;shape=mxgraph.office.security.lock_protected;fillColor=#8d4fff;fontSize=24;" vertex="1" parent="kCYPVFitgcqMiLwyZe9G-102">
          <mxGeometry x="902.5" y="60.75" width="38" height="52" as="geometry" />
        </mxCell>
        <mxCell id="kCYPVFitgcqMiLwyZe9G-103" value="Private subnet" style="points=[[0,0],[0.25,0],[0.5,0],[0.75,0],[1,0],[1,0.25],[1,0.5],[1,0.75],[1,1],[0.75,1],[0.5,1],[0.25,1],[0,1],[0,0.75],[0,0.5],[0,0.25]];outlineConnect=0;gradientColor=none;html=1;whiteSpace=wrap;fontSize=24;fontStyle=0;container=1;pointerEvents=0;collapsible=0;recursiveResize=0;shape=mxgraph.aws4.group;grIcon=mxgraph.aws4.group_security_group;grStroke=0;strokeColor=#00A4A6;fillColor=#E6F6F7;verticalAlign=top;align=left;spacingLeft=30;fontColor=#147EBA;dashed=0;" vertex="1" parent="kCYPVFitgcqMiLwyZe9G-82">
          <mxGeometry x="2815" y="1381" width="1125" height="1349" as="geometry" />
        </mxCell>
        <mxCell id="kCYPVFitgcqMiLwyZe9G-104" value="Public Route Table" style="sketch=0;outlineConnect=0;fontColor=#232F3E;gradientColor=none;fillColor=#8C4FFF;strokeColor=none;dashed=0;verticalLabelPosition=bottom;verticalAlign=top;align=center;html=1;fontSize=24;fontStyle=0;aspect=fixed;pointerEvents=1;shape=mxgraph.aws4.route_table;" vertex="1" parent="kCYPVFitgcqMiLwyZe9G-82">
          <mxGeometry x="881" y="970" width="98" height="95.49" as="geometry" />
        </mxCell>
        <mxCell id="kCYPVFitgcqMiLwyZe9G-106" value="Public Route Table" style="sketch=0;outlineConnect=0;fontColor=#232F3E;gradientColor=none;fillColor=#8C4FFF;strokeColor=none;dashed=0;verticalLabelPosition=bottom;verticalAlign=top;align=center;html=1;fontSize=24;fontStyle=0;aspect=fixed;pointerEvents=1;shape=mxgraph.aws4.route_table;" vertex="1" parent="kCYPVFitgcqMiLwyZe9G-82">
          <mxGeometry x="3150" y="950" width="78" height="76" as="geometry" />
        </mxCell>
        <mxCell id="kCYPVFitgcqMiLwyZe9G-108" style="edgeStyle=orthogonalEdgeStyle;rounded=0;orthogonalLoop=1;jettySize=auto;html=1;fontSize=24;" edge="1" parent="kCYPVFitgcqMiLwyZe9G-82" target="kCYPVFitgcqMiLwyZe9G-124">
          <mxGeometry relative="1" as="geometry">
            <mxPoint x="708" y="880.0769230769229" as="sourcePoint" />
            <mxPoint x="1981" y="98.99999999999989" as="targetPoint" />
            <Array as="points">
              <mxPoint x="1000" y="880" />
              <mxPoint x="1000" y="10" />
            </Array>
          </mxGeometry>
        </mxCell>
        <mxCell id="kCYPVFitgcqMiLwyZe9G-112" value="Public Route Table" style="sketch=0;outlineConnect=0;fontColor=#232F3E;gradientColor=none;fillColor=#8C4FFF;strokeColor=none;dashed=0;verticalLabelPosition=bottom;verticalAlign=top;align=center;html=1;fontSize=24;fontStyle=0;aspect=fixed;pointerEvents=1;shape=mxgraph.aws4.route_table;" vertex="1" parent="kCYPVFitgcqMiLwyZe9G-82">
          <mxGeometry x="1800" y="1010" width="98" height="95.49" as="geometry" />
        </mxCell>
        <mxCell id="kCYPVFitgcqMiLwyZe9G-120" value="Private Route Table" style="sketch=0;outlineConnect=0;fontColor=#232F3E;gradientColor=none;fillColor=#8C4FFF;strokeColor=none;dashed=0;verticalLabelPosition=bottom;verticalAlign=top;align=center;html=1;fontSize=24;fontStyle=0;aspect=fixed;pointerEvents=1;shape=mxgraph.aws4.route_table;" vertex="1" parent="kCYPVFitgcqMiLwyZe9G-82">
          <mxGeometry x="3790" y="1420" width="98" height="95.49" as="geometry" />
        </mxCell>
        <mxCell id="kCYPVFitgcqMiLwyZe9G-125" value="" style="group;fontSize=24;" vertex="1" connectable="0" parent="kCYPVFitgcqMiLwyZe9G-82">
          <mxGeometry x="1980.5" y="-30" width="79" height="79" as="geometry" />
        </mxCell>
        <mxCell id="kCYPVFitgcqMiLwyZe9G-123" value="" style="ellipse;whiteSpace=wrap;html=1;aspect=fixed;strokeColor=#ffffff;fontSize=24;" vertex="1" parent="kCYPVFitgcqMiLwyZe9G-125">
          <mxGeometry width="79" height="79" as="geometry" />
        </mxCell>
        <mxCell id="kCYPVFitgcqMiLwyZe9G-124" value="VPC&lt;div style=&quot;font-size: 24px;&quot;&gt;Internet&lt;div style=&quot;font-size: 24px;&quot;&gt;Gateway&lt;/div&gt;&lt;/div&gt;" style="sketch=0;outlineConnect=0;fontColor=#232F3E;gradientColor=none;fillColor=#8C4FFF;strokeColor=none;dashed=0;verticalLabelPosition=bottom;verticalAlign=top;align=center;html=1;fontSize=24;fontStyle=0;aspect=fixed;pointerEvents=1;shape=mxgraph.aws4.internet_gateway;" vertex="1" parent="kCYPVFitgcqMiLwyZe9G-125">
          <mxGeometry x="1" y="1" width="78" height="78" as="geometry" />
        </mxCell>
        <mxCell id="kCYPVFitgcqMiLwyZe9G-128" value="" style="group;fontSize=24;" vertex="1" connectable="0" parent="kCYPVFitgcqMiLwyZe9G-82">
          <mxGeometry x="95" y="1381" width="1125" height="1349" as="geometry" />
        </mxCell>
        <mxCell id="kCYPVFitgcqMiLwyZe9G-100" value="Private subnet" style="points=[[0,0],[0.25,0],[0.5,0],[0.75,0],[1,0],[1,0.25],[1,0.5],[1,0.75],[1,1],[0.75,1],[0.5,1],[0.25,1],[0,1],[0,0.75],[0,0.5],[0,0.25]];outlineConnect=0;gradientColor=none;html=1;whiteSpace=wrap;fontSize=24;fontStyle=0;container=1;pointerEvents=0;collapsible=0;recursiveResize=0;shape=mxgraph.aws4.group;grIcon=mxgraph.aws4.group_security_group;grStroke=0;strokeColor=#00A4A6;fillColor=#E6F6F7;verticalAlign=top;align=left;spacingLeft=30;fontColor=#147EBA;dashed=0;" vertex="1" parent="kCYPVFitgcqMiLwyZe9G-128">
          <mxGeometry width="1125" height="1349" as="geometry" />
        </mxCell>
        <mxCell id="kCYPVFitgcqMiLwyZe9G-127" value="" style="sketch=0;pointerEvents=1;shadow=0;dashed=0;html=1;strokeColor=none;labelPosition=center;verticalLabelPosition=bottom;verticalAlign=top;outlineConnect=0;align=center;shape=mxgraph.office.security.lock_protected;fillColor=#8d4fff;fontSize=24;" vertex="1" parent="kCYPVFitgcqMiLwyZe9G-100">
          <mxGeometry x="895" y="60.75" width="38" height="52" as="geometry" />
        </mxCell>
        <mxCell id="kCYPVFitgcqMiLwyZe9G-151" value="SSH Bastion Host" style="sketch=0;points=[[0,0,0],[0.25,0,0],[0.5,0,0],[0.75,0,0],[1,0,0],[0,1,0],[0.25,1,0],[0.5,1,0],[0.75,1,0],[1,1,0],[0,0.25,0],[0,0.5,0],[0,0.75,0],[1,0.25,0],[1,0.5,0],[1,0.75,0]];outlineConnect=0;fontColor=#232F3E;fillColor=#ED7100;strokeColor=#ffffff;dashed=0;verticalLabelPosition=bottom;verticalAlign=top;align=center;html=1;fontSize=24;fontStyle=0;aspect=fixed;shape=mxgraph.aws4.resourceIcon;resIcon=mxgraph.aws4.compute;" vertex="1" parent="kCYPVFitgcqMiLwyZe9G-100">
          <mxGeometry x="95" y="1169" width="78" height="78" as="geometry" />
        </mxCell>
        <mxCell id="kCYPVFitgcqMiLwyZe9G-118" value="Private Route Table" style="sketch=0;outlineConnect=0;fontColor=#232F3E;gradientColor=none;fillColor=#8d4fff;strokeColor=none;dashed=0;verticalLabelPosition=bottom;verticalAlign=top;align=center;html=1;fontSize=24;fontStyle=0;aspect=fixed;pointerEvents=1;shape=mxgraph.aws4.route_table;" vertex="1" parent="kCYPVFitgcqMiLwyZe9G-128">
          <mxGeometry x="955" y="39" width="98" height="95.49" as="geometry" />
        </mxCell>
        <mxCell id="kCYPVFitgcqMiLwyZe9G-130" value="" style="sketch=0;pointerEvents=1;shadow=0;dashed=0;html=1;strokeColor=none;labelPosition=center;verticalLabelPosition=bottom;verticalAlign=top;outlineConnect=0;align=center;shape=mxgraph.office.security.lock_protected;fillColor=#8d4fff;fontSize=24;" vertex="1" parent="kCYPVFitgcqMiLwyZe9G-82">
          <mxGeometry x="3730" y="1441.75" width="38" height="52" as="geometry" />
        </mxCell>
        <mxCell id="kCYPVFitgcqMiLwyZe9G-107" value="Public NAT Gateway" style="sketch=0;outlineConnect=0;fontColor=#232F3E;gradientColor=none;fillColor=#8C4FFF;strokeColor=none;dashed=0;verticalLabelPosition=bottom;verticalAlign=top;align=center;html=1;fontSize=24;fontStyle=0;aspect=fixed;pointerEvents=1;shape=mxgraph.aws4.nat_gateway;" vertex="1" parent="kCYPVFitgcqMiLwyZe9G-82">
          <mxGeometry x="610.5" y="830.5" width="99" height="99" as="geometry" />
        </mxCell>
        <mxCell id="kCYPVFitgcqMiLwyZe9G-139" style="edgeStyle=orthogonalEdgeStyle;rounded=0;orthogonalLoop=1;jettySize=auto;html=1;fontSize=24;" edge="1" parent="kCYPVFitgcqMiLwyZe9G-82" source="kCYPVFitgcqMiLwyZe9G-110">
          <mxGeometry relative="1" as="geometry">
            <mxPoint x="2040" y="889.5" as="sourcePoint" />
            <mxPoint x="2021" y="130" as="targetPoint" />
            <Array as="points">
              <mxPoint x="1730" y="290" />
              <mxPoint x="2021" y="290" />
            </Array>
          </mxGeometry>
        </mxCell>
        <mxCell id="kCYPVFitgcqMiLwyZe9G-138" style="edgeStyle=orthogonalEdgeStyle;rounded=0;orthogonalLoop=1;jettySize=auto;html=1;fontSize=24;" edge="1" parent="kCYPVFitgcqMiLwyZe9G-82" source="kCYPVFitgcqMiLwyZe9G-115" target="kCYPVFitgcqMiLwyZe9G-124">
          <mxGeometry relative="1" as="geometry">
            <mxPoint x="3380" y="880.0769230769229" as="sourcePoint" />
            <Array as="points">
              <mxPoint x="3030" y="880" />
              <mxPoint x="3030" y="10" />
            </Array>
          </mxGeometry>
        </mxCell>
        <mxCell id="kCYPVFitgcqMiLwyZe9G-140" value="&lt;font style=&quot;font-size: 24px;&quot;&gt;Public Elastic IP&lt;/font&gt;&lt;div style=&quot;font-size: 24px;&quot;&gt;&lt;font style=&quot;font-size: 24px;&quot;&gt;Associated with AZ&lt;/font&gt;&lt;/div&gt;" style="sketch=0;outlineConnect=0;fontColor=#232F3E;gradientColor=none;fillColor=#ED7100;strokeColor=none;dashed=0;verticalLabelPosition=bottom;verticalAlign=top;align=center;html=1;fontSize=24;fontStyle=0;aspect=fixed;pointerEvents=1;shape=mxgraph.aws4.elastic_ip_address;" vertex="1" parent="kCYPVFitgcqMiLwyZe9G-82">
          <mxGeometry x="2410" y="440" width="72.01" height="30" as="geometry" />
        </mxCell>
        <mxCell id="kCYPVFitgcqMiLwyZe9G-143" value="&lt;font style=&quot;font-size: 24px;&quot;&gt;Public Elastic IP&lt;/font&gt;&lt;div style=&quot;font-size: 24px;&quot;&gt;&lt;font style=&quot;font-size: 24px;&quot;&gt;Associated with AZ&lt;/font&gt;&lt;/div&gt;" style="sketch=0;outlineConnect=0;fontColor=#232F3E;gradientColor=none;fillColor=#ED7100;strokeColor=none;dashed=0;verticalLabelPosition=bottom;verticalAlign=top;align=center;html=1;fontSize=24;fontStyle=0;aspect=fixed;pointerEvents=1;shape=mxgraph.aws4.elastic_ip_address;" vertex="1" parent="kCYPVFitgcqMiLwyZe9G-82">
          <mxGeometry x="3872.99" y="340" width="72.01" height="30" as="geometry" />
        </mxCell>
        <mxCell id="kCYPVFitgcqMiLwyZe9G-144" value="&lt;font style=&quot;font-size: 24px;&quot;&gt;Public Elastic IP&lt;/font&gt;&lt;div style=&quot;font-size: 24px;&quot;&gt;&lt;font style=&quot;font-size: 24px;&quot;&gt;Associated with AZ&lt;/font&gt;&lt;/div&gt;" style="sketch=0;outlineConnect=0;fontColor=#232F3E;gradientColor=none;fillColor=#ED7100;strokeColor=none;dashed=0;verticalLabelPosition=bottom;verticalAlign=top;align=center;html=1;fontSize=24;fontStyle=0;aspect=fixed;pointerEvents=1;shape=mxgraph.aws4.elastic_ip_address;" vertex="1" parent="kCYPVFitgcqMiLwyZe9G-82">
          <mxGeometry x="1152.99" y="340" width="72.01" height="30" as="geometry" />
        </mxCell>
        <mxCell id="kCYPVFitgcqMiLwyZe9G-110" value="Public NAT Gateway" style="sketch=0;outlineConnect=0;fontColor=#232F3E;gradientColor=none;fillColor=#8C4FFF;strokeColor=none;dashed=0;verticalLabelPosition=bottom;verticalAlign=top;align=center;html=1;fontSize=24;fontStyle=0;aspect=fixed;pointerEvents=1;shape=mxgraph.aws4.nat_gateway;" vertex="1" parent="kCYPVFitgcqMiLwyZe9G-82">
          <mxGeometry x="1970.5" y="840" width="99" height="99" as="geometry" />
        </mxCell>
        <mxCell id="kCYPVFitgcqMiLwyZe9G-149" value="" style="group;fontSize=24;" vertex="1" connectable="0" parent="kCYPVFitgcqMiLwyZe9G-81">
          <mxGeometry x="1330" y="2920" width="1415" height="1030" as="geometry" />
        </mxCell>
        <mxCell id="kCYPVFitgcqMiLwyZe9G-146" value="&lt;font style=&quot;font-size: 24px;&quot;&gt;&lt;b style=&quot;font-size: 24px;&quot;&gt;Terraform Backend&lt;/b&gt;&lt;/font&gt;" style="fillColor=none;strokeColor=#5A6C86;dashed=1;verticalAlign=top;fontStyle=0;fontColor=#5A6C86;whiteSpace=wrap;html=1;fontSize=24;" vertex="1" parent="kCYPVFitgcqMiLwyZe9G-149">
          <mxGeometry width="1415" height="1030" as="geometry" />
        </mxCell>
        <mxCell id="kCYPVFitgcqMiLwyZe9G-148" value="" style="shape=image;verticalLabelPosition=bottom;labelBackgroundColor=default;verticalAlign=top;aspect=fixed;imageAspect=0;image=https://www.svgrepo.com/show/376353/terraform.svg;fontSize=24;" vertex="1" parent="kCYPVFitgcqMiLwyZe9G-149">
          <mxGeometry width="80" height="80" as="geometry" />
        </mxCell>
        <mxCell id="kCYPVFitgcqMiLwyZe9G-150" value="EC2 Bastion Host&lt;div style=&quot;font-size: 24px;&quot;&gt;Access Key&lt;/div&gt;" style="sketch=0;outlineConnect=0;fontColor=#232F3E;gradientColor=none;fillColor=#DD344C;strokeColor=none;dashed=0;verticalLabelPosition=bottom;verticalAlign=top;align=center;html=1;fontSize=24;fontStyle=0;aspect=fixed;pointerEvents=1;shape=mxgraph.aws4.sts;" vertex="1" parent="kCYPVFitgcqMiLwyZe9G-80">
          <mxGeometry x="234.4" y="4150" width="109.2" height="70" as="geometry" />
        </mxCell>
        <mxCell id="kCYPVFitgcqMiLwyZe9G-152" style="edgeStyle=orthogonalEdgeStyle;rounded=0;orthogonalLoop=1;jettySize=auto;html=1;fontSize=24;" edge="1" parent="kCYPVFitgcqMiLwyZe9G-80" source="kCYPVFitgcqMiLwyZe9G-150">
          <mxGeometry relative="1" as="geometry">
            <mxPoint x="289" y="2740" as="targetPoint" />
          </mxGeometry>
        </mxCell>
      </root>
    </mxGraphModel>
  </diagram>
</mxfile>
